<svg width="41" height="41" viewBox="0 0 41 41" fill="none" xmlns="http://www.w3.org/2000/svg">
<g filter="url(#filter0_d_24_27)">
<path d="M20.5 29.7C13.2235 29.7 7.3 23.7765 7.3 16.5C7.3 9.2235 13.2235 3.3 20.5 3.3C27.7765 3.3 33.7 9.2235 33.7 16.5C33.7 23.7765 27.7765 29.7 20.5 29.7ZM20.5 33C29.608 33 37 25.608 37 16.5C37 7.392 29.608 0 20.5 0C11.392 0 4 7.392 4 16.5C4 25.608 11.392 33 20.5 33ZM18.85 16.5V23.1H22.15V16.5H27.1L20.5 9.9L13.9 16.5H18.85Z" fill="#CB6507"/>
</g>
<defs>
<filter id="filter0_d_24_27" x="0" y="0" width="41" height="41" filterUnits="userSpaceOnUse" color-interpolation-filters="sRGB">
<feFlood flood-opacity="0" result="BackgroundImageFix"/>
<feColorMatrix in="SourceAlpha" type="matrix" values="0 0 0 0 0 0 0 0 0 0 0 0 0 0 0 0 0 0 127 0" result="hardAlpha"/>
<feOffset dy="4"/>
<feGaussianBlur stdDeviation="2"/>
<feComposite in2="hardAlpha" operator="out"/>
<feColorMatrix type="matrix" values="0 0 0 0 0 0 0 0 0 0 0 0 0 0 0 0 0 0 0.25 0"/>
<feBlend mode="normal" in2="BackgroundImageFix" result="effect1_dropShadow_24_27"/>
<feBlend mode="normal" in="SourceGraphic" in2="effect1_dropShadow_24_27" result="shape"/>
</filter>
</defs>
</svg>
